<?xml version="1.0" encoding="utf-8"?>
<!-- Generator: Adobe Illustrator 26.0.1, SVG Export Plug-In . SVG Version: 6.00 Build 0)  -->
<svg version="1.1" id="Capa_1" xmlns="http://www.w3.org/2000/svg" xmlns:xlink="http://www.w3.org/1999/xlink" x="0px" y="0px"
	 viewBox="0 0 1000 208" style="enable-background:new 0 0 1000 208;" xml:space="preserve">
<style type="text/css">
	.st0{fill:#F1EDEA;}
	.st1{fill:none;stroke:#585453;stroke-width:4.1616;stroke-linecap:round;stroke-linejoin:round;stroke-miterlimit:10;}
	.st2{fill:#585453;}
	.st3{font-family:'Roboto-Regular';}
	.st4{font-size:17px;}

	.st5{
  	background-color: #FFFFFF;
   	transition: background-color 1s linear;
	}
	.st6:hover{
  	 background-color: #dd7324;
	}

</style>
<g id="normal">
	<g>
		<circle class="st0 st6:hover" cx="308" cy="93" r="68.1"/>
		<g>
			<path class="st1" d="M265,110c0,0,12.4-2.6,21.7-12.6c9.3-10.1,16.5-18.7,25.8-22.9c12.2-5.5,17-4.5,18.9-1.1s-2.8,10.2-4.5,13
				s-3.7,3.7,0.7,5s5.7,0.7,13.7,7.8c8.1,7.1,18.7,19.2,17.7,20.7c-0.7,1.1-10.3,5.5-26.3,3.9c-17.5-1.7-26.9-12.2-26.9-12.2
				s-9.7,4-14,1.9c-1.2-0.6-13.3,14.3-13.3,14.3S270.2,129,265,110z"/>
			<path class="st1" d="M308.5,76.7c0,0-2.8-7.2-3.2-11.7c-0.3-3.1-19-16.3-35.2-15.1c-0.9,0.1,0.9,15.5,6.9,24.7
				c5.6,8.6,15,17.1,15,17.1"/>
			<path class="st1" d="M312.2,116.7c0,0-7.1-4.6-10.1-11.2"/>
			<line class="st1" x1="287.7" y1="117.3" x2="293.3" y2="111.1"/>
			<path class="st1" d="M326.3,90.9c0,0-3.8,0-6.4-4"/>
			<path class="st1" d="M327.7,70.8c0,0,8.5-3.1,8.5-2c0,1.6-4.9,4.6-4.9,4.6"/>
			<path class="st1" d="M312.5,89c0,0-1.9,0.9-4,3.6c-1,1.4-5.1,6.4-5.1,6.4"/>
		</g>
	</g>
	<g>
		<circle class="st0" cx="671.1" cy="93" r="68.1"/>
		<g>
			<path class="st1" d="M690.6,68.2c0,0-3.1-3.5-2.8-7.1c0,0-0.5-5,2.8-4c3.9,1.2,5.5,1.1,7.1,3.1s15.4,1.4,17.9,5
				c2.1,3,1.5,5.6-4.9,10.8c-5.7,4.7-10,2.3-10.7,3.9s-4.2,12.4-9.3,14.7c-1.3,0.6-0.6,5.6-0.6,5.6c0.7,1.2,4.1-0.7,7.5,2.6
				c2.4,2.4,1,4.4-0.6,4.4c-5.3,0-10.2,0-10.2,0c-1-0.5-3.1-2.5-4.1-3.6c-3-3.1-3.6-4.5-3.6-4.5l-4.4,1.5c0,0-0.4,2.2,0.1,3.9
				s1,2.1-4.9,2.2s-17.5,0.2-21.1,0.2c-4.6,0-4.3-3.2-5-3.3c-0.4-0.1-6-1.8-8.5,1c-2.9,3.2-5.6,8.5,1,13.3s10.5,7.8,22.8,4.6
				c9.1-2.3,12.9-3.3,15.9-4.6c0,0-5.6,12.2-27.1,11.1c-15-0.8-24.2-9.8-22.2-21.3c1.7-9.5,2.9-7,3.3-11.2c0.4-4.2,1-11.2,8.1-22.3
				c5.9-9.2,13.4-13.7,23.5-10.8c9.8,2.9,13.8,5.3,19,4.5s7.8-3.5,7.8-3.5"/>
			<path class="st1" d="M656.8,82.5c0,0,5.1,2.9,6.9,7.6c1.8,4.8,2.7,7.8,2.9,9c0.4,1.7,8.1,1.5,8.1,1.5"/>
			<path class="st1" d="M675.8,91.9c0,0,1.8,5.1,3.8,7.7"/>
		</g>
	</g>
	<g>
		<circle class="st0" cx="848.9" cy="93" r="68.1"/>
		<g>
			<path class="st1" d="M830.3,122.8c0,0-4.2,5.4-15.4,1.4c-9-3.2-16.2-16.4-13.8-30.9s15.9-23.9,21.8-27.1
				c5.9-3.3,19.6-9.1,35.2-2.9c15.7,6.2,15.5,8.4,23.2,17.5s12.7,12.5,15.2,19.1c1.7,4.5-1.3,10.8-7.2,9.5s-12.1-5.9-16.2-10.5
				C869,94.4,857.3,88,857.3,88s-1.8,2.7-0.7,7.1l-1.8,6.2c0,0-4.6-4.2-4.4-8.9c0.1-3.2,1.9-6.2-0.2-6.9c-4.1-1.5-15-5.8-20.8-5.1
				c-5.9,0.7-7,0.6-7,0.6s1.1,4.1,1,5.7c-0.2,2.8,7.4,4.6,6.7,5.7c-1.3,1.9-4.2,3.1-8.4,0.9s-7.4-5.3-8.5-5.3s-6.6,5.6-5.9,14.9
				C808,112.1,814,120.5,830.3,122.8z"/>
			<path class="st1" d="M819.4,78.1c0,0,2.8,2.3,3.6,5.9"/>
			<line class="st1" x1="827.3" y1="94.2" x2="831" y2="97.9"/>
			<line class="st1" x1="830.1" y1="92.3" x2="834.4" y2="94.5"/>
			<line class="st1" x1="829.2" y1="91.3" x2="835.1" y2="89.9"/>
			<line class="st1" x1="853.5" y1="99.9" x2="853.5" y2="105.6"/>
			<line class="st1" x1="854.7" y1="99.9" x2="859" y2="105.6"/>
			<path class="st1" d="M856,97.1c0,0,5.2,2.8,6.5,5.6"/>
			<path class="st1" d="M860.2,84c0,0-3.5,3.2-3.7,6"/>
			<path class="st1" d="M857.4,68.6c0,0,4.7,0.5,7.2,3.1"/>
			<circle class="st1" cx="885.3" cy="98.9" r="2"/>
			<circle class="st1" cx="892.9" cy="93.2" r="2"/>
		</g>
	</g>
	<g>
		
			<ellipse transform="matrix(0.7071 -0.7071 0.7071 0.7071 77.6689 373.5093)" class="st0" cx="489.7" cy="93" rx="68.1" ry="68.1"/>
		<g>
			<path class="st1" d="M537.7,92.8c0,0-18.5-18.2-38-20s-33.8,13.9-38.2,14.1c-4.4,0.2-7.1-11.5-16.2-13.1
				c-2.4-0.4-2.4,5.6-0.9,8.6s4.7,1.8,0,10.5c-3.3,6.2-2.6,13.6-2.6,13.6c2,1.1,12.9-5.2,15.1-10.7c2.5-6.2,5,3.2,6.7,4.8
				c1.7,1.6,11.7,11.8,23.3,13.4S521.6,115.1,537.7,92.8z"/>
			<path class="st1" d="M505.5,73.8c0,0-1.1-11.3-5.7-11.3c-5.2,0-14.4,4-14.7,5.5c-0.3,1.4,2.6,5.7,2.3,5.8"/>
			<path class="st1" d="M481.3,75.9c0,0-4.8-3.8-6.2-3.3c-3,1.2-7.9,5.6-7.9,5.6l3.1,3.6"/>
			<path class="st1" d="M502.9,114c0,0-5,9.6-7.5,9.5s-17.9-6.6-17.9-6.6c-1.1-2.9,1.3-5.3,1.3-5.3"/>
			<path class="st1" d="M517.4,78.4c0,0-4.6,4.4-5.8,11.8c-1.7,10.6,7.3,18.9,8.2,18.5"/>
			<polyline class="st1" points="503.8,87.2 500.6,91.9 503.8,92.4 502.1,95 503.9,98.8 			"/>
			<polyline class="st1" points="495.1,87.4 491.8,92 495.1,92.5 493.4,95.1 495.1,98.9 			"/>
			<polyline class="st1" points="486.5,87.8 483.2,92.4 486.5,92.9 484.8,95.5 486.5,99.3 			"/>
		</g>
	</g>
	<g>
		<circle class="st0" cx="125.5" cy="93" r="68.1"/>
		<g>
			<path class="st1" d="M143,109.7c0,0-2.4,10.5-2.4,16.3s0,18.9,0,18.9l-6.6-0.1"/>
			<path class="st1" d="M105.3,109.7c0,0,0.1,3.2,1.2,4.8c2.2,3.3,6,4.2,6,4.2"/>
			<path class="st1" d="M89,90.5c0,0-7.9,3.4-9,7.6c-1.3,5,2.3,8.4,4.3,12.2"/>
			<path class="st1" d="M144.8,85.5l6.9,0.1c0,0,4-5,3.6-9.5s-2.7-9.6-5.5-9.8c-3.3-0.3-6.5,0.6-8.2,5c-1.6,4.5-0.3,6.2,0.5,8.9
				S144.8,85.5,144.8,85.5z"/>
			<path class="st1" d="M141.3,72.3c0,0-4.2,0.3-7.3-4c-0.7-0.9-1.8-3-1.7-3.3c0-0.4,5.5-1.3,7.3-0.3c1.8,1,3.5,4,3.5,4"/>
			<path class="st1" d="M155.1,72.3c0,0,4.2,0.3,7.3-4c0.7-0.9,1.8-3,1.7-3.3c0-0.4-5.5-1.3-7.3-0.3c-1.8,1-3.5,4-3.5,4"/>
			<path class="st1" d="M125.2,45.4c2.9,5.2,5.1,5.3,7.5,7.3c4.5,3.9,9.4,11,11.3,15"/>
			<path class="st1" d="M132,41.7c0,0,0.3,5.2,0.3,7c0,3.3,2.8,6.3,2.8,6.3"/>
			<path class="st1" d="M140.9,52.2c0,0,2.2,2.8,3.1,5.9c0.9,2.9,0.8,8.8,0.7,9.2"/>
			<path class="st1" d="M171.1,45c-2.9,5.2-5.1,5.3-7.5,7.3c-4.5,3.9-9.4,11-11.3,15"/>
			<path class="st1" d="M164.3,41.2c0,0-0.3,5.2-0.3,7c0,3.3-2.8,6.3-2.8,6.3"/>
			<path class="st1" d="M155.4,51.7c0,0-2.2,2.8-3.1,5.9c-0.9,2.9-0.8,8.8-0.7,9.2"/>
			<path class="st1" d="M141.3,77.6c0,0-4.1,4.7-7,5.8c-2.9,1.1-10,0.3-14.9,1.8s-13.4-0.3-19.6,0.4c-6.1,0.7-10.8,3.2-12.9,8.2
				S85,107.1,90.1,112s4.2,14.9,5,20.7c0.8,5.8,5.3,11.7,5.3,11.7l5.5,0.3c0,0-4.1-12.7-4.1-18.2c0-5.6,1.3-5.5,4.2-9
				c1.5-1.8,4.5,1.3,9.4,1.7c4.9,0.4,9.1,0.7,9.1,0.7c1.9,4.5,2.1,24.7,2.1,24.7c1.8,0.4,7.5,0.1,7.5,0.1s0.1-12.2-0.8-18.7
				c-0.8-6.4-2.4-9.7-0.4-10.8c2.8-1.5,9.9-4.3,14.5-9.2s8-10.9,8-18s0-8.8,0-8.8"/>
			<path class="st1" d="M86.8,107.1c0,0,3.9,7.6,2.2,9.7c0,0-4.3,4.8-5,8.1c-0.7,3.3,2,19.9,2,19.9h6c0,0-0.8-9.3,0-13.5
				s2.3-6,2.3-6"/>
		</g>
	</g>
</g>
<g>
	<text transform="matrix(1 0 0 1 47.0238 187.0454)" class="st2 st3 st4">Grandes mamíferos</text>
</g>
<g>
	<text transform="matrix(1 0 0 1 292.9311 187.0454)" class="st2 st3 st4">Aves</text>
</g>
<g>
	<text transform="matrix(1 0 0 1 470.5926 187.0454)" class="st2 st3 st4">Peces</text>
</g>
<g>
	<text transform="matrix(1 0 0 1 641.5001 187.0454)" class="st2 st3 st4">Roedores</text>
</g>
<g>
	<text transform="matrix(1 0 0 1 823.0408 187.0454)" class="st2 st3 st4">Anfíbios</text>
</g>
</svg>
