<?xml version="1.0" encoding="utf-8"?>
<!-- Generator: Adobe Illustrator 26.0.1, SVG Export Plug-In . SVG Version: 6.00 Build 0)  -->
<svg version="1.1" id="Capa_1" xmlns="http://www.w3.org/2000/svg" xmlns:xlink="http://www.w3.org/1999/xlink" x="0px" y="0px"
	 viewBox="0 0 1000 309" style="enable-background:new 0 0 1000 309;" xml:space="preserve">
<style type="text/css">
	.st0{fill:none;stroke:#585554;stroke-width:5.6821;stroke-linecap:round;stroke-linejoin:round;stroke-miterlimit:10;}
	.st1{fill:none;stroke:#585554;stroke-width:6.5313;stroke-linecap:round;stroke-linejoin:round;stroke-miterlimit:10;}
	.st2{fill:none;stroke:#585554;stroke-width:6.686;stroke-linecap:round;stroke-linejoin:round;stroke-miterlimit:10;}
	.st3{fill:#FFFFFF;stroke:#585554;stroke-width:5.6821;stroke-linecap:round;stroke-linejoin:round;stroke-miterlimit:10;}
	.st4{fill:none;stroke:#585554;stroke-width:5.4175;stroke-linecap:round;stroke-linejoin:round;stroke-miterlimit:10;}
	.st5{fill:none;}
	.st6{fill:#3D3D3B;}
	.st7{font-family:'Roboto-Regular';}
	.st8{font-size:18px;}
</style>
<g>
	<path class="st0" d="M589.4,87.1L589,67.6c0,0-0.9-3.9-4.4-4c-2.1-0.1-2.9,2.7-3.3,4c-1.1,3.5,0.2,11.6-0.1,19.5
		c-0.6,16.8,6.4,13.1,6.9,20.3c1.7,25.9-1.1,61.3-1.1,61.3s-0.6,8.2,7.2,8.2c6.6,0,6.9-8.2,6.9-8.2s-2.1-59.8-1.7-61.3
		s7.3-8.2,7.7-20.3c0.2-5.9-0.3-19.5-0.3-19.5s-1.5-4.5-3.7-4s-4.3,2.8-4.3,4c0,1.2,0.7,20.1,0.7,20.1"/>
	<path class="st0" d="M632.1,63.4c-3.7,0-11.6,2.5-13.7,19.2c-2.1,16.7,8.1,23,9,28.4c0.9,5.5-2.3,52.5-2.2,59.2
		c0,2.8,3.8,6.4,6.9,6.6c3.2,0.1,7.1-2.9,7.2-6.6c0.2-3.7-1.7-55.9-1.5-59.2c0.5-5.4,10.9-15.5,8.8-28.4
		C644.7,70.5,635.8,63.4,632.1,63.4z"/>
	<path class="st0" d="M588.6,65.5c0,0,3.3-2.7,5.4-2.7c2.1,0,5.3,2.7,5.3,2.7"/>
</g>
<g>
	<path class="st0" d="M890.2,99.8l-53.3-26.8c-2-1.2-4.5-1.2-6.5,0L779,99.8c-2.7,0-4.8-2.2-4.8-4.8v0c0-2.7,2.2-4.8,4.8-4.8
		l51.3-26.8c2-1.2,4.5-1.2,6.5,0l53.3,26.8c2.7,0,4.8,2.2,4.8,4.8v0C895,97.6,892.8,99.8,890.2,99.8z"/>
	<path class="st1" d="M877.6,96.1l-0.3,54.4c0,3.8-3.1,6.9-6.9,6.9h-74c-3.8,0-6.9-3.1-6.9-6.9l0.3-53.4"/>
	<path class="st2" d="M850.2,156.6H819c-0.5,0-0.9-0.4-0.9-0.9v-45.4c0-0.5,0.4-0.9,0.9-0.9h31.3c0.5,0,0.9,0.4,0.9,0.9v45.4
		C851.2,156.2,850.7,156.6,850.2,156.6z"/>
	<path class="st3" d="M867.6,119.9l-22,8.2l0.8,18.7c0.2,5.6,2,11,5.3,15.5c4.6,6.5,11.4,14.8,15.9,14.8c3.9,0,9.4-6.1,13.8-11.9
		c4.6-6.1,7.1-13.5,7-21.1l-0.1-16L867.6,119.9z"/>
	<polyline class="st2" points="859.9,149.1 865.8,154.8 877.3,143.3 	"/>
</g>
<g>
	<path class="st0" d="M236.7,177.2H108.3c-1.7,0-3.1-1.4-3.1-3.1V84c0-1.7,1.4-3.1,3.1-3.1h128.4c1.7,0,3.1,1.4,3.1,3.1v90
		C239.8,175.8,238.4,177.2,236.7,177.2z"/>
	<path class="st0" d="M148.1,80V67.7c0-2.9,2.4-5.3,5.3-5.3h38.8c2.9,0,5.3,2.4,5.3,5.3V80"/>
	<g>
		<path class="st4" d="M182.7,120v-12c0-2-1.6-3.6-3.6-3.6h-13.4c-2,0-3.6,1.6-3.6,3.6v12"/>
		<path class="st4" d="M162.1,140.6v12c0,2,1.6,3.6,3.6,3.6h13.4c2,0,3.6-1.6,3.6-3.6v-12"/>
		<path class="st4" d="M162.1,120h-12c-2,0-3.6,1.6-3.6,3.6V137c0,2,1.6,3.6,3.6,3.6h12"/>
		<path class="st4" d="M182.7,140.6h12c2,0,3.6-1.6,3.6-3.6v-13.4c0-2-1.6-3.6-3.6-3.6h-12"/>
	</g>
</g>
<g>
	<path class="st0" d="M430.2,127.4c0,0-45.5-0.4-49.6,0.6c-4.2,1-9.7,3.9-9.7,8.7c0,1.3,61.7,0,61.7,0"/>
	<path class="st0" d="M352.4,147.8c0,0,26-0.2,27.9,0c1.9,0.2,10.8,6.3,9.7,8.5c-1,2.3-45.6,0.6-45.6,0.6"/>
	<line class="st0" x1="343.3" y1="89.1" x2="372.6" y2="89.1"/>
	<line class="st0" x1="376.3" y1="70.6" x2="393.1" y2="70.6"/>
	<line class="st0" x1="406.8" y1="75.7" x2="414.8" y2="75.6"/>
	<line class="st0" x1="353.8" y1="127.3" x2="363.1" y2="127.3"/>
	<line class="st0" x1="423.8" y1="113.5" x2="432.7" y2="113.5"/>
	<line class="st0" x1="418.4" y1="149.5" x2="435.8" y2="149.5"/>
	<line class="st0" x1="423.8" y1="160.3" x2="444.4" y2="160.3"/>
	<path class="st0" d="M405.5,62.2c2.4,1.6,5.9,12.8,9.2,13.4c3.3,0.5,10.4,2.8,17.3-1.4s15,3.9,12.9,10.9
		c-1.5,5.1-11.9,11.4-12.1,18.4c-0.2,6.9-0.9,37.9,0.8,42.3c2,5.2,10.8,12.3,11.6,16.7c1.2,6.6-2.1,13.5-10.7,10.8
		c-6.4-2.1-6.9-2-15.1-2.2c-8.2-0.2-16.3,0.1-19.4,3.5c-3.1,3.5-8.3,5.8-13.3,0.8c-4.4-4.4-10.8-3.6-21.4-3.8
		c-10.6-0.2-13.4,4.2-18.4,2.2c-5-2.1-8.7-8.5-3.8-15.3c6.1-8.5,9.4-7.8,9.7-13s1.2-40.2,1-42.5c-0.6-6.7-8.8-9.9-11.6-15.6
		s0.2-14.3,7.2-13.4c7.5,1,11,2.9,16.6,2.4c7.3-0.7,8.8-4.2,10.9-8.2c2.1-4,2.8-6.8,6.8-6.8C387.7,61.5,403.1,60.7,405.5,62.2z"/>
	<path class="st0" d="M442.6,89.1c0,0-24.4-0.6-29.4,0.3c-5,0.9-12.5,5.8-8.5,8.8h30.1"/>
	<path class="st0" d="M353.9,103c0,0,30-0.4,32.5,0.9s8.2,5.1,7.8,8.1c-0.5,2.9-40.3,0.5-40.3,0.5"/>
</g>
<rect x="71.2" y="210.5" class="st5" width="202.2" height="22"/>
<text transform="matrix(1 0 0 1 133.4956 223.9579)" class="st6 st7 st8">Medicinal</text>
<rect x="512.2" y="210.5" class="st5" width="202.2" height="19.2"/>
<text transform="matrix(1 0 0 1 560.6323 223.9581)" class="st6 st7 st8">Alimentación</text>
<rect x="306.2" y="210.5" class="st5" width="179.1" height="60.5"/>
<text transform="matrix(1 0 0 1 321.4912 223.9576)"><tspan x="0" y="0" class="st6 st7 st8">Comercio ilegal de </tspan><tspan x="50.7" y="21.6" class="st6 st7 st8">pieles</tspan></text>
<rect x="733.2" y="210.5" class="st5" width="202.2" height="56.4"/>
<text transform="matrix(1 0 0 1 793.9268 223.957)"><tspan x="0" y="0" class="st6 st7 st8">Seguridad </tspan><tspan x="4" y="21.6" class="st6 st7 st8">territorial</tspan></text>
</svg>
