<?xml version="1.0" encoding="utf-8"?>
<!-- Generator: Adobe Illustrator 26.0.1, SVG Export Plug-In . SVG Version: 6.00 Build 0)  -->
<svg version="1.1" id="Capa_1" xmlns="http://www.w3.org/2000/svg" xmlns:xlink="http://www.w3.org/1999/xlink" x="0px" y="0px"
	 viewBox="0 0 200 300" style="enable-background:new 0 0 200 300;" xml:space="preserve">
<style type="text/css">
	.st0{fill:none;stroke:#000000;stroke-width:0.824;stroke-miterlimit:10;}
	.st1{fill:none;}
	.st2{fill:none;stroke:#C6C6C6;stroke-width:0.4944;stroke-miterlimit:10;stroke-dasharray:1.648,1.648;}
	.st3{fill:none;stroke:#DD7324;stroke-width:1.648;stroke-linecap:round;stroke-miterlimit:10;}
	.st4{fill:none;stroke:#DD7324;stroke-width:1.236;stroke-miterlimit:10;}
	.st5{fill:#3D3D3B;}
	.st6{font-family:'Roboto-Light';}
	.st7{font-size:11.4365px;}
	.animation{animation: dash 30s linear infinite;}
	.main_dots{
        fill:none;
        stroke-width:3;
        stroke-linecap:round;
        stroke-linejoin:round;
        stroke-miterlimit:10;
        animation: dash 90s linear infinite;
    }
    @keyframes dash {
      to {
        stroke-dashoffset: -1000;
      }
    }
    @media(max-width: 800px){
        .st29 {font-size: 19px;}
    }
</style>
<g>
	<g >
		<line class="st0" x1="50.7" y1="277.9" x2="166.3" y2="277.9"/>
		<g>
			<g class= "">
				<line class="st0 " x1="51.1" y1="280.9" x2="51.1" y2="277.5"/>
				<line class="st1" x1="54.5" y1="280.9" x2="54.5" y2="277.5"/>
				<line class="st1" x1="62.3" y1="280.9" x2="62.3" y2="277.7"/>
				<line class="st1" x1="74.1" y1="281" x2="74.1" y2="277.5"/>
				<line class="st0" x1="85.3" y1="280.9" x2="85.3" y2="277.6"/>
				<line class="st1" x1="97" y1="280.7" x2="97" y2="277.7"/>
				<line class="st1" x1="108.2" y1="280.7" x2="108.2" y2="277.6"/>
				<line class="st0" x1="119.4" y1="280.7" x2="119.4" y2="277.6"/>
				<line class="st1" x1="131.1" y1="281" x2="131.1" y2="277.7"/>
				<line class="st1" x1="142.3" y1="280.8" x2="142.3" y2="277.6"/>
				<line class="st0" x1="153.5" y1="281.1" x2="153.5" y2="277.5"/>
				<line class="st0" x1="165.9" y1="280.9" x2="165.9" y2="277.5"/>
			</g>
			<g>
			</g>
		</g>
	</g>
	<g >
	<g>
		<line class="st1" x1="40.5" y1="277.9" x2="40.5" y2="6.1"/>
		<g>
			<g>
				<line class="st0" x1="50.9" y1="277.9" x2="50.9" y2="277.9"/>
				<line class="st2" x1="51.4" y1="243.9" x2="166.7" y2="243.9"/>
				<line class="st2" x1="166.7" y1="209.9" x2="51.4" y2="209.9"/>
				<line class="st2" x1="51.4" y1="175.9" x2="166.7" y2="175.9"/>
				<line class="st2" x1="51.4" y1="141.9" x2="166.7" y2="141.9"/>
				<line class="st2" x1="51.4" y1="108" x2="166.7" y2="108"/>
				<line class="st2" x1="166.7" y1="74" x2="51.4" y2="74"/>
				<line class="st2" x1="51.4" y1="40" x2="166.7" y2="40"/>
				<line class="st2" x1="166.2" y1="6" x2="51.4" y2="6"/>
			</g>
			<g>
			</g>
		</g>
	</g>
	<g>
		<g>
			<g>
				<line class="st3" x1="62.8" y1="40" x2="51.4" y2="6"/>
				<line class="st3" x1="74.1" y1="74" x2="62.8" y2="40"/>
				<line class="st3" x1="85.4" y1="141.9" x2="74.1" y2="74"/>
				<line class="st3" x1="96.8" y1="175.9" x2="85.4" y2="141.9"/>
				<line class="st3" x1="108.1" y1="223.5" x2="96.8" y2="175.9"/>
				<line class="st3" x1="119.5" y1="237.1" x2="108.1" y2="223.5"/>
				<line class="st3" x1="130.8" y1="250.7" x2="119.5" y2="237.1"/>
				<line class="st3" x1="142.1" y1="225.5" x2="130.8" y2="250.7"/>
				<line class="st3" x1="153.5" y1="237.1" x2="142.1" y2="225.5"/>
				<line class="st3" x1="164.8" y1="250.7" x2="153.5" y2="237.1"/>
			</g>
		</g>
	</g>
	<g>
		<g>
			<g>
				<rect x="50.8" y="4.6" class="st4" width="1.3" height="2.9"/>
				<rect x="62.1" y="38.6" class="st4" width="1.3" height="2.9"/>
				<rect x="73.4" y="72.5" class="st4" width="1.3" height="2.9"/>
				<rect x="84.8" y="140.5" class="st4" width="1.3" height="2.9"/>
				<rect x="96.1" y="174.5" class="st4" width="1.3" height="2.9"/>
				<rect x="107.5" y="222.1" class="st4" width="1.3" height="2.9"/>
				<rect x="118.8" y="235.7" class="st4" width="1.3" height="2.9"/>
				<rect x="130.1" y="249.3" class="st4" width="1.3" height="2.9"/>
				<rect x="141.5" y="224.1" class="st4" width="1.3" height="2.9"/>
				<rect x="152.8" y="235.7" class="st4" width="1.3" height="2.9"/>
			</g>
		</g>
	</g>
</g>
</g>
<g>
	<g>
		<text transform="matrix(0.888 0 0 1 41.2051 281.1436)" class="st5 st6 st7">0</text>
	</g>
	<g>
		<text transform="matrix(0.888 0 0 1 22.9365 247.5142)" class="st5 st6 st7">5.000</text>
	</g>
	<g>
		<text transform="matrix(0.888 0 0 1 18.8418 213.5317)" class="st5 st6 st7">10.000</text>
	</g>
	<g>
		<text transform="matrix(0.888 0 0 1 19.2227 179.5464)" class="st5 st6 st7">15.000</text>
	</g>
	<g>
		<text transform="matrix(0.888 0 0 1 16.7139 145.564)" class="st5 st6 st7">20.000</text>
	</g>
	<g>
		<text transform="matrix(0.888 0 0 1 17.0947 111.5796)" class="st5 st6 st7">25.000</text>
	</g>
	<g>
		<text transform="matrix(0.888 0 0 1 16.7383 77.5962)" class="st5 st6 st7">30.000</text>
	</g>
	<g>
		<text transform="matrix(0.888 0 0 1 17.1191 43.6128)" class="st5 st6 st7">35.000</text>
	</g>
	<g>
		<text transform="matrix(0.888 0 0 1 16.7383 9.6294)" class="st5 st6 st7">40.000</text>
	</g>
</g>
<g>
	<rect x="44" y="289.3" class="st1" width="23.5" height="12.5"/>
	<text transform="matrix(0.888 0 0 1 44.0078 297.8916)" class="st5 st6 st7">1916</text>
</g>
<g>
	<rect x="75.3" y="289.3" class="st1" width="22.6" height="12.5"/>
	<text transform="matrix(0.888 0 0 1 75.2949 297.8916)" class="st5 st6 st7">1946</text>
</g>
<g>
	<rect x="108.8" y="289.3" class="st1" width="22.6" height="12.5"/>
	<text transform="matrix(0.888 0 0 1 108.8311 297.8916)" class="st5 st6 st7">1976</text>
</g>
<g>
	<rect x="141.4" y="289.3" class="st1" width="28.9" height="12.5"/>
	<text transform="matrix(0.888 0 0 1 141.3496 297.8916)" class="st5 st6 st7">2006</text>
</g>
</svg>
