<?xml version="1.0" encoding="utf-8"?>
<!-- Generator: Adobe Illustrator 26.0.1, SVG Export Plug-In . SVG Version: 6.00 Build 0)  -->
<svg version="1.1" id="mapa_t1" xmlns="http://www.w3.org/2000/svg" xmlns:xlink="http://www.w3.org/1999/xlink" x="0px" y="0px"
	 viewBox="0 0 1000 400" style="enable-background:new 0 0 1000 400;" xml:space="preserve">
<style type="text/css">
	.st0{fill:#1E1E1C;}
	.st1{font-family:'BarlowSemiCondensed-Light';}
	.st2{font-size:32.659px;}
	.st3{fill:none;stroke:#000000;stroke-width:1.2247;stroke-miterlimit:10;}
	.st4{fill:#DD7324;stroke:#FFFFFF;stroke-miterlimit:18.092;}
	.st5{fill:#DEDCDD;stroke:#FFFFFF;stroke-miterlimit:18.092;}
	.st6{fill:#DD7324;stroke:#FFFFFF;stroke-miterlimit:10;}
	.st7{opacity:0;}
	.st8{font-family:'Roboto-Light';}
	.st9{font-size:12px;}
	#Nombres{
	opacity:0; transition:all ease 0.25s
	}
	svg:hover #Nombres{opacity:1; transition:all ease 0.25s}
	#circulo{rgba(221,115,36,-80)}
</style>
<image style="overflow:visible;enable-background:new    ;" width="2004" height="793" xlink:href="mapa-t1.png"  transform="matrix(0.5 0 0 0.5 0 0)">
</image>
<g>
	<g>
		<text transform="matrix(1 0 0 1 18.876 396.1401)" class="st0 st1 st2">N</text>
	</g>
	<g>
		<g>
			<line class="st3" x1="28.4" y1="373.7" x2="28.4" y2="362.8"/>
			<g>
				<path d="M28.4,355.4c1.3,3.5,3.5,7.8,5.8,10.5l-5.8-2.1l-5.8,2.1C24.9,363.2,27.1,358.9,28.4,355.4z"/>
			</g>
		</g>
	</g>
</g>
<g>
	<g transform="translate(-181.09231540436627,128.4432340604287) scale(1)">
		<g transform="translate(0,0) scale(1.8092043436621417)">
			<path class="st4" d="M379,31.7l0.2,2.4l-1.2-0.5l0.6,2.7l-1.2-1.8l-0.4-1.7l-0.8-1.6l-1.7-2l-3.1-0.1l0.5,1.4l-0.8,1.9l-1.5-0.7
				l-0.4,0.6l-1-0.4l-1.3-0.3l-0.9-2.8l-1.5-2.6l0.3-2l-2.2-0.9l0.6-1.2l1.9-1.3l-2.7-1.8l0.8-2.3l2.9,1.5l1.6,0.2l0.6,2.4l3.2,0.5
				l3.1-0.1l2,0.6l-1.1,2.9l-1.5,0.2l-0.8,1.9l2.1,1.8l0.2-2.2h0.9L379,31.7z"/>
			<path class="st4" d="M372.9,12.2l1.7,1.3l0.1,2.1l-2.7,0.1l-2.8-0.2l-2,0.5l-3.4-1.5l-0.2-0.7l1.8-2.5l1.6-0.9l2.5,0.8l1.8,0.1
				L372.9,12.2z"/>
			<path class="st4" d="M322.8-13.8l4.2,4l0.2,2.8l1.6,1.7l0.2,1.7L326.5-4l1.5,3.7l3.6,2.1l5,2.4l-1.9,1.5L334,9l3.4,1.3l3.4,1.7
				l4.6,1.9l4.6,0.4l2.2,1.7l2.6,0.3l4.1,0.8l2.8-0.1l0.2-1.4l-0.8-2.1V12l1.9-0.7l0.7,2.7l0.2,0.7l3.2,1.3l2-0.5l2.8,0.2l2.7-0.1
				l-0.1-2.1l-1.5-1.1l2.6-0.4l2.6-2.5l3.4-2.2l2.9,0.8l2.1-1.4l1.8,1.9l-1.2,1.4l4.1,0.8l0.5,1.3l-1,0.6l0.6,2.1l-2.5-0.6l-3.9,2.3
				l0.4,1.9l-1.4,2.9l0.1,1.6l-1.1,2.8l-2.7-0.8l0.4,3.5l-0.6,1.2l0.5,1.4l-1.6,0.8l-2.5-5.4h-0.9l-0.2,2.2l-2.1-1.8l0.8-1.9
				l1.5-0.2l1.1-2.9l-2-0.6l-3.1,0.1l-3.2-0.5l-0.6-2.4l-1.6-0.2l-2.9-1.5l-0.8,2.3l2.7,1.8l-1.9,1.3l-0.6,1.2l2.2,0.9l-0.3,2
				l1.5,2.6l0.9,2.8l-0.3,1.2h-2.3l-4,0.7l0.5,2.6l-1.6,2l-4.6,2.3l-3.4,4l-2.3,2.1l-3.2,2.2l0.1,1.6l-1.6,0.8l-2.9,1.2l-1.6,0.2
				l-0.8,2.6l1,4.4l0.4,2.8l-1.2,3.2l0.3,5.8l-1.7,0.2l-1.4,2.6l1.1,1.1l-3,1l-1,2.3l-1.3,1l-3.3-3.2l-1.8-4.8l-1.5-3.4l-1.3-1.6
				l-2-3.3l-1.1-4.2l-0.7-2.1l-3.4-4.7l-1.9-6.6l-1.4-4.4l-0.4-4.1l-1-3.2l-4.7,2l-2.4-0.4l-4.8-4.1l1.5-1.2l-1.1-1.3l-4.2-2.9
				l2-2.3h7.3l-1-2.9l-2.1-1.7l-0.7-2.6l-2.4-1.5l3.2-3.6l3.9,0.3l3-3.6l1.6-3.4l2.7-3.4l-0.4-2.4l2.5-2l-2.9-1.7l-1.5-2.3l-1.7-3
				l1.4-1.5l5.1,0.8l3.6-0.5L322.8-13.8z"/>
			<path class="st4" d="M402.9,37.9l-1.8,1.5l-2.3,0.2l-1.1,3.7l-1.4,0.6l2,3l2.4,2.5l1.6,2.2l-0.9,3l-1.1,0.6l1,1.7l2.5,2.7
				l0.5,1.9l0.1,1.6l1.6,3.1l-1.6,3.2l-1.4,3.5l-0.5-2.5l0.9-2.6l-1.3-2v-3.7l-1.5-1.8l-1.5-4.1l-1-4.3l-1.8-2.8l-2,1.7l-3.6,2.4
				l-1.9-0.3l-2.2-0.8l0.7-4.2l-1-3.2l-3.1-3.9l0.3-1.2l-2-0.4l-2.7-2.8l-0.6-2.7l1.2,0.5l-0.2-2.4l1.6-0.8l-0.5-1.4l0.6-1.2
				l-0.4-3.5l2.7,0.8l1.1-2.8l-0.1-1.6l1.4-2.9l-0.4-1.9l3.9-2.3l2.5,0.6l-0.6-2.1l1-0.6l-0.5-1.3l1.9-0.3l1.5,2l1.6,0.8l0.5,2.6
				l0.3,2.8l-2.7,2.8l0.2,4l3.4-0.6l1.3,3.1l2.2,0.7l-0.6,2.8l2.7,1.3l1.5,0.6l2.3-1l0.3,1.4l-2.6,2.2l-0.5,1.3L402.9,37.9z"/>
			<path class="st4" d="M360.9,11.8v1.5l0.8,2.1l-0.2,1.4l-2.8,0.1l-4.1-0.8l-2.6-0.3l-2.2-1.7l-4.6-0.4l-4.6-1.9l-3.4-1.7l-3.4-1.3
				l0.8-3.2l1.9-1.5l1.2-0.8l2.8,1.1l3.7,2.2l1.9,0.5l1.4,1.6l2.7,0.7l2.9,1.5l3.9,0.8L360.9,11.8z"/>
			<path class="st5" d="M421.4,47.3"/>
		</g>
	</g>
	<g>
		<path class="st6" d="M519.6,146.5l2.1-2.5l-3.2-3.4l-3.8,2.6l-5.3-1.5l-6.2,3.9l-4.7,4.6l-4.7,0.8l-3.4-1.7l-3.1-0.2l-4.2-1.3
			l-2.5,1.4l-3.6,4.7l-1.3-4.8l-3.5,1.3l-7.5-0.4l-7.2-1.2l-5.3-2.7l-5-1.1l-2.3-3.1l-3.6-0.8l-6.6-4.1l-4.9-2.9l-2.2,1.5l-9.5-2.9
			l-6.4-4l-2.3-8l4.4,0.8l-0.3-3.2l-2.9-3.1l-0.3-5l1.5,0.8l2.8-0.4l3.3-4.9l0.5-2.3l2.8,1.3l4-0.3l1.2,0.9l0.9,1.6l1.7-0.2l0.4-2.9
			l2.3-0.1l0.2-1.7l4-0.2l1.2-0.7l1.9,1.3c0,0,2.3,1.4,3.6,1.4c1.3-0.1,2.7-1.5,4.7-2s4.5,0.3,5.7-0.7c1.2-0.9,2.2-3.8,4.4-4.1
			c2.2-0.3,3,0.4,4.4-0.9s2.8-2.2,4.9-2s4.7,1.3,6.4,1.2s4.1,0.1,4.1,0.1l0.5,3.3c0,0,2.7-0.8,2.1,0.8c-0.7,1.6-1.7,2.7-0.9,4.2
			c0.8,1.5-1.1,0.9-1,2.7c0.1,1.7,1.3,3.9,3.1,5.4s1.9,4.4,3.4,4.7s3.1-0.2,5.7,0s3.4,1.9,5.8,1.6s7.9-0.4,8.5,0.2
			c0.6,0.7,3.5-0.5,5.4-0.1s7.1,4.8,9,4.4c1.8-0.4,1.3,0.6,3.7,0s4.9-2.7,4.2-4.6l0,0c5.5-0.2,5-0.8,6.3,0.7
			c1.4,1.5,4.9,17.9,5.3,18.7c0.4,0.8-7.8,3.9-8.6,4.8c-0.9,0.9,0.8,5,0.8,5l-3.4,0.5L519.6,146.5z"/>
	</g>
</g>
<g id="Nombres" class="st7">
	<g>
		<text transform="matrix(1 0 0 1 442.2926 122.9653)" class="st0 st8 st9">Tibet</text>
	</g>
	<g>
		<text transform="matrix(1 0 0 1 395.4264 144.0844)" class="st0 st8 st9">Nepal</text>
	</g>
	<g>
		<text transform="matrix(1 0 0 1 402.692 207.9658)" class="st0 st8 st9">India</text>
	</g>
	<g>
		<text transform="matrix(1 0 0 1 468.5166 208.9827)" class="st0 st8 st9">Birmania</text>
	</g>
	<g>
		<text transform="matrix(1 0 0 1 412.2194 176.6)" class="st0 st8 st9">Bangladesh</text>
	</g>
	<g>
		<text transform="matrix(1 0 0 1 473.0319 148.6293)" class="st0 st8 st9">Bután</text>
	</g>
</g>
</svg>
